<svg xmlns="http://www.w3.org/2000/svg" preserveAspectRatio="none" viewBox="0 0 400 31"><path fill="#fff" d="M383.61.11c-.21.22-.11.79.21 1.13.49.52.64 1.72.24 1.85-.93.29-1.18.74-.41.74.56 0 .73.55.31.97-.25.25.17.59 1.05.85.33.1.7.29.81.43.32.38.87.3 1.49-.22l.56-.47-.4-1.28c-.39-1.24-.41-1.28-.92-1.28-.65 0-1.66-.97-1.83-1.74-.17-.81-.77-1.34-1.13-.98m-31.68 1.64c-.15.23-.49.52-.75.66-.72.37-1 1.33-.53 1.78.75.69-.06 1.35-2.23 1.82-.37.08-.88.19-1.13.26-.32.08-.66.01-1.06-.2-.58-.31-.6-.31-.78.01-.5.87-1.13 1.28-1.47.98-.26-.24-.37-.25-.6-.09-1.32.95-2.61.3-2.18-1.11.21-.7.15-1.62-.1-1.57-.09.02-.52.17-.96.33-.76.28-.82.28-1.3 0-.62-.36-1.46-.38-1.59-.05-.07.18-.17.2-.4.08-.17-.09-.5-.16-.74-.16s-.62-.12-.84-.27c-.49-.32-.91-.2-.91.25 0 .67-.65 1.51-1.05 1.36-.52-.2-1.8.04-2.52.46-.77.46-.76.46-.76-.1 0-.59.27-.87.86-.87s.75-.27.42-.64c-.14-.15-.3-.48-.36-.72-.16-.64-1.06-1.42-1.91-1.65-.41-.11-.83-.31-.93-.45-.52-.71-1.11.16-.71 1.03.15.33.15.47 0 .62-.29.29-.24.59.14.71.74.23.1 1.15-.93 1.35-.34.06-.76.26-.93.43-.17.17-.49.31-.71.31s-.44.11-.49.25c-.06.15-.31.25-.64.25-1.42 0-1.8.17-1.8.77 0 .92-1.27.86-1.42-.06-.06-.34-.32-.93-.58-1.3-.39-.57-.46-.79-.38-1.37.11-.83-.04-1.05-1.05-1.54-.71-.34-.76-.35-1.06-.07-.24.22-.47.26-.93.17-.61-.12-1.57.14-1.57.42 0 .21-.82.59-1.54.72-.75.14-.81.48-.13.76.56.23.61.34.75 1.86.11 1.07.09 1.12-.41 1.67-.29.31-.7.76-.93 1.01-.58.64-1.16.43-1.16-.42 0-.33-.08-.67-.17-.75-.26-.25-1.86-.41-1.99-.2-.15.24-.85.23-1.27-.03-.3-.18-.39-.15-.66.18-.39.47-.84.38-1.17-.24-.21-.4-.2-.46.22-.8.29-.24.45-.52.45-.82 0-.25.07-.45.16-.45.5 0 .51-.68.01-1.41-.62-.9-.64-1.48-.09-2 .62-.58.52-.71-.67-.82-1.47-.14-2.63.41-1.66.78.69.27.64 1.44-.06 1.44-.69 0-.8.17-.92 1.39-.07.7-.28 1.47-.54 1.97-.29.58-.39.97-.32 1.3.08.38.02.53-.35.82-.59.46-.65.45-1.45-.23-.37-.32-.77-.58-.87-.58-.23 0-1.21-.9-1.78-1.65l-.44-.57-1.47.27c-2.99.55-2.94.56-3.45-.12-.51-.67-.72-.72-1.48-.33-.4.21-.59.23-.82.08-.48-.3-.64-.22-.91.42-.29.7-1.4.76-2.12.1-.79-.72-2.12-.59-2.94.28-.38.41-.61.51-1.16.51-.48 0-.68.07-.68.24 0 .39-.89.47-1.83.17-1.05-.34-1.67-.16-1.67.5 0 .5-1.52 2.1-2 2.1s-.56-.28-.26-.7c.37-.53.33-1.5-.08-2.02-.44-.56-.42-.56-1.72.23l-1.1.67-1.19-.17c-1.16-.16-1.19-.16-1.52.25-.45.57-.8.54-.8-.06 0-.26-.11-.57-.25-.69-.28-.23-.34-1.09-.08-1.25.44-.27-.55-1.75-1.17-1.75-.09 0-.27-.22-.42-.5-.26-.51-1.07-.68-1.82-.4-.64.25-.32 1.23.4 1.23.81 0 .95.22 1.1 1.69.21 2.1-.88 3.19-3.03 3.02-.78-.06-1.12-.01-1.46.21-.43.28-.45.28-.89-.23-.6-.68-1.98-.79-1.82-.14.15.61-.9 1.24-1.32.78-.16-.18-.35-.32-.41-.32-.1 0-1.31 1.68-1.47 2.04-.11.24 1.15.12 1.56-.14.44-.29.54-.12.25.42-.2.38-2.2.85-2.3.54-.08-.24-.62-.25-1.06-.02-.22.12-.4.12-.53.01-.11-.09-.46-.19-.78-.22-1.29-.12-.68-1.14.67-1.14.87 0 1.16-.23 1.47-1.15.29-.87-.24-1.38-1.39-1.31l-.84.05-.18.75c-.18.73-.2.75-.95.86-.42.06-.94.23-1.15.38-.69.48-1.29.34-2.05-.49-.55-.6-.8-.75-1.23-.75-.46 0-.58-.09-.79-.58-.39-.94-1.01-.82-1.88.34-.38.51-.69 1.02-.69 1.14s-.22.38-.49.58c-.31.23-.53.57-.6.95-.06.32-.18.58-.25.58-.23 0-.37-.78-.24-1.42.17-.94-.77-1.12-1.24-.24-.4.75-1.64.49-1.66-.35 0-.15-.15-.4-.34-.56-.24-.22-.3-.42-.23-.72.1-.4.08-.41-.44-.31-.3.06-.94.11-1.42.11-1.04 0-1.94.84-1.59 1.49.22.41.07.8-.36.94-.41.13-.65-.09-.88-.8-.12-.36-.31-.57-.59-.63-.31-.07-.44-.24-.53-.67-.17-.87-.87-2.49-1.08-2.49-.2 0-.4 1.47-.4 2.91 0 .78-.06.92-.58 1.4-.69.63-.78 1.08-.19.93.55-.14.68.17.36.86-.27.57-.29.58-1.08.47-.52-.07-.84-.04-.92.08-.06.1-.2.19-.3.19s.11-.25.47-.56l.65-.56-.31-.98-.38-1.21c-.05-.17-.24-.2-.67-.13-.74.12-1.89-.69-1.89-1.33 0-.27-.1-.39-.31-.39-.17 0-.41-.11-.52-.25-.11-.14-.44-.31-.73-.39-.43-.11-.53-.23-.57-.66-.11-1.09-1.58-1.67-2.65-1.04-.47.28-.77.34-1.25.27-.56-.09-.63-.06-.63.24 0 .19-.18.51-.39.71-.22.2-.44.59-.51.87-.35 1.52-.39 1.85-.25 2.11.27.51.17.97-.26 1.17-.23.1-.53.36-.67.58-.48.73-.84.18-.4-.63.31-.59-.07-.82-1.17-.7-1.17.12-1.4 0-1.88-.95l-.38-.74h-1.05c-.83-.02-1.03.03-.96.21.05.13.09.38.09.56 0 .3.07.32.75.22 1.3-.2 1.75.72.71 1.45-.3.21-.62.49-.73.62-.26.35-.57.08-.57-.49 0-.43-.06-.49-.47-.49-.26 0-.55-.08-.65-.18-.13-.13-.28-.13-.52 0-.19.1-.49.18-.67.18-.82 0-1.1.86-.4 1.23l.46.24-.5.2c-.27.11-.9.39-1.39.61-1.08.5-1.24.45-1.51-.45-.17-.57-.27-.69-.53-.62-.2.05-.32 0-.32-.14 0-.38-.71-.74-1.45-.74-.39 0-.71.08-.71.17s-.17.13-.39.07c-1.02-.26-2.85.51-3 1.26-.11.56-.5.65-1.03.26-.28-.2-.29-.29-.12-.58.49-.81-.16-1.13-1.57-.76-2 .52-2.28.84-1.08 1.22.56.18.7.3.7.62 0 .28.09.4.32.4.75 0 .65 1.57-.17 2.46-1.25 1.37-2.1 1.53-1.9.37.1-.59.05-.74-.42-1.27s-.52-.69-.43-1.29c.19-1.3-.26-2.1-.69-1.23-.38.76-.72.93-1 .5-.28-.43-.79-.49-.93-.12-.16.43-.44.27-.44-.24 0-.88-.7-1.49-1.3-1.13-.27.16-.69.29-.93.29-.62 0-.56.48.15 1.22.62.64.68.85.42 1.52-.21.56-.5.55-.5-.01 0-.25-.17-.6-.42-.82-.23-.21-.42-.53-.42-.72 0-.64-.8-1.05-1.91-.99-.91.05-1.02.02-1.17-.32-.23-.53-.97-.51-1.22.03-.1.22-.34.45-.53.51-.23.07-.34.25-.34.53s-.11.45-.32.51c-.18.05-.36.19-.41.32-.35.92-1.43-.86-1.62-2.67-.2-1.92-1.38-2.94-2.42-2.08-.18.15-.34.15-.61.02-.35-.17-1.15-.4-1.54-.44-.09-.01-.33-.08-.53-.15-.35-.12-.98.18-1.93.94-.42.34-.36.48.45.99.9.57 1.08.57 1.96-.02 1.15-.77 1.39-.79 2.05-.16.32.3.58.63.58.72 0 .16 1.09 1.1 1.66 1.42.41.24-.09.67-.66.55-.41-.08-.53 0-.94.58-.31.45-.6.68-.85.68-.26 0-.38.11-.38.34 0 .42-.04.42-1.08-.09-.96-.47-1.46-.41-1.39.15.04.28-.05.37-.4.41-.26.03-.64.28-.9.58-.31.37-.56.51-.84.48-.29-.04-.47.08-.69.46-.56.98-.79.09-.28-1.12.51-1.22.01-1.7-1.74-1.7-1.1 0-1.35-.18-1.35-.95 0-.44-.07-.55-.35-.55-.87 0-1.42.91-.62 1.03.27.04.4.21.49.63.06.32.2.6.3.64.1.03.18.16.18.29 0 .42.38 1.07.69 1.17.37.12.41.55.06.68-.55.21-1.06-.09-1.18-.7-.07-.39-.3-.73-.67-1.01-.52-.39-1.04-.42-.81-.04.06.09-.06.21-.25.26-.21.06-.35.23-.35.43 0 .48-.78 1.16-1.18 1.04-.18-.06-.32-.02-.32.08s-.15.18-.33.18c-.27 0-.33-.11-.33-.57 0-.81-.36-.85-1.24-.13-.66.53-.75.68-.67 1.07.08.35.03.48-.21.57-.17.06-.42.24-.56.41-.26.32-.94.41-1.69.22-.44-.11-.92.16-2.33 1.28-.55.44-.97.31-.98-.31 0-.34-.15-.56-.54-.8-.69-.43-.77-.94-.21-1.31.74-.49-.2-1.44-1.43-1.44-.17 0-.46-.08-.65-.17l-.66-.33c-.86-.43-.96-.25-.52.95.5 1.36-.46 2.55-1.11 1.39-.15-.27-.37-.5-.49-.5-.16 0-1.39 1.97-1.6 2.57-.12.34-.88-.09-1.16-.66-.37-.76-.37-.96.04-1.33.5-.45.42-.75-.21-.76-.66 0-1.55-.72-1.71-1.37-.13-.52-.28-.57-.58-.21-.29.35-.5.16-.5-.48 0-.34.13-.66.33-.85.4-.36.42-.83.08-1.64-.14-.33-.25-.78-.25-1.01 0-.62-.25-.66-1-.16-.65.43-.69.44-1.01.15-.32-.29-.34-.29-.66 0-.5.45-.43.97.17 1.2.76.29.64.62-.17.49l-.67-.11v.57c0 .56.02.57.83.68 1.35.18 1.12.77-.38.99-.71.1-.83.18-1.09.73-.24.5-.38.62-.79.63-1.06.03-1.25.08-1.25.32 0 .14-.08.25-.17.25-.38 0-.54.77-.25 1.22.27.41.26.43-.11.67-.43.27-2.11.7-2.24.57-.28-.28-.23-1.76.08-2.36.67-1.29-.04-1.29-.78 0-.57.99-.65 1.39-.35 1.69.33.33.02.96-.62 1.27-.76.36-1.12.14-.64-.4.48-.52-.08-1.43-1.11-1.81-1.44-.53-2.43-3.48-1.26-3.77.43-.11.46-.17.36-.64-.06-.29-.11-.81-.11-1.17v-.65l-1.36.08c-.75.04-1.53 0-1.73-.09-.25-.11-.7-.1-1.42.03-.58.11-1.31.23-1.63.26-.32.03-1.22.14-2 .24-2.72.35-4.29.51-4.88.51-1.01 0-1.57.5-.86.78.23.09.22.14-.03.42-.28.31-.26.35.37.94.36.34.92 1.05 1.23 1.58.73 1.2 1.14 1.23 1.43.09.09-.35.04-.46-.23-.55-.23-.07-.38-.31-.45-.72-.06-.34-.18-.75-.27-.93-.12-.23-.09-.38.1-.57.23-.23.28-.21.46.19.3.67.84.58 1.29-.2.57-1.02 1.03-1.06 1.61-.13.19.31.68.7 1.14.92.77.37.81.41.7.92-.34 1.62-.34 1.64.14 1.52.28-.07.44-.04.44.07 0 .1.21.18.47.18.59 0 1.13.37.95.66-.17.28-2.37.09-2.74-.23-.14-.12-.43-.28-.63-.34-.21-.06-.45-.26-.55-.44-.25-.47-.66-.41-.66.1 0 .47-.22.59-1.67.91-.5.11-1.18.34-1.5.51-.63.32-2.29.53-2.43.31-.07-.12-2.51-.08-3.49.06-.38.05-.53-.45-.26-.87.14-.21.28-.21.94-.03 1.04.28 1.13.16.98-1.29l-.12-1.18h-.58c-.55 0-.57.02-.48.47.08.35.02.55-.25.78-.42.38-.88.18-.97-.4-.03-.2-.2-.45-.38-.56-.41-.26-.41-.63.01-1.17.47-.61.45-1.29-.05-1.29-.21 0-.53-.11-.71-.24-.39-.3-1.4-.33-1.99-.06-.36.16-.52.15-.91-.08-.84-.49-2.01-.13-2.01.63 0 .37-.07.41-.88.45-.78.04-.88.1-.93.44-.08.57.17.74.71.46.7-.36 1.11-.16 1.48.73.28.66.43.81.93.93.68.17.9.64.37.81-.18.06-.56-.01-.83-.15-.89-.46-1.26-.06-.43.48.23.15.42.38.42.51s.09.26.2.3c.38.13-.38 2.13-.81 2.13a.48.48 0 01-.48-.37c-.65-2.11-1.12-2.58-1.89-1.89-.22.2-.34.2-.8 0-.95-.4-.62-1.29.41-1.12.62.1.77-.34.21-.63-.73-.38-2.03-.82-2.39-.82-.43 0-.61-.27-.61-.91 0-.97-.64-1.65-1.11-1.17-.23.23-.31.22-.8-.08-.87-.54-2.09-.7-3.07-.41l-.83.25.28.48c.26.45.26.5 0 .8-.4.44-.36.69.13.79.23.05.6.12.83.17.56.11.52.28-.13.58-.43.2-.6.43-.84 1.17-.33 1.01-1.11 1.82-1.75 1.83-.28 0-.4.13-.48.49-.1.49-.62.85-1.23.85-.17 0-.36.08-.42.17-.28.46-.89.16-1.17-.57-.32-.85-.24-1.1.37-1.1.47 0 .5-1.66.05-2.5-.12-.23-.12-.33 0-.33.09 0 .17-.15.17-.33 0-.41-.48-.44-1.18-.08-.46.24-.68.75-.32.75.26 0 .19.67-.08.77-.14.05-.4.43-.57.83-.18.4-.43.73-.57.73s-.4.21-.59.46c-.34.45-.35.45-.6.14-.22-.29-.22-.36 0-.67.4-.55.49-.82.27-.89-.11-.04-.31-.17-.43-.3-.37-.37-.5-.29-.76.47-.2.57-.34.72-.73.79-.36.06-.58.26-.83.75q-.35.67-1.24.61c-.86-.06-.92-.03-1.61.65-1.25 1.23-1.65.52-.73-1.31.47-.94.5-1.08.31-1.64-.18-.55-.17-.64.14-.88.19-.15.45-.53.59-.85.32-.75 1.54-2 1.95-2 .46 0 .55-.26.32-.96-.26-.83-.57-1.04-1.54-1.04-.54 0-1.2-.17-1.95-.5-1.49-.65-2.94-.56-3.84.26-.34.31-.82.22-.82-.15 0-.45-1.35-.45-1.84 0s-.73.48-1.37.15c-.86-.45-1.37.04-1.38 1.34v1.06l.72.11c.4.06 1.01.06 1.36 0 .55-.09.65-.05.73.23.13.49.76.43.95-.09.26-.69.87-.86 1.55-.44 1.09.67 1.95.13 1.95-1.23 0-.62.63-.8 1.71-.48.56.16.35.85-.37 1.27-.77.44-.78.49-.32 1.11.39.52.39 1.47.01 1.39-.46-.1-.73.33-.62.99.1.65.09.67-.78 1.32-.31.23-.46.5-.46.81 0 .75-1.45 1.54-2.32 1.27-.51-.16-.35-.47.31-.61.97-.2 1.13-.5.78-1.48-.17-.46-.26-1.01-.2-1.23.14-.58-1.13-.83-2.01-.4-.64.31-1.16 2.45-.78 3.19.14.26.22.5.19.52-.03.03-.3.17-.61.33-.58.29-.59.36-.26 1.47.08.25-.04.29-.9.29-1.19 0-1.45-.22-1.29-1.08l.11-.58h-.75c-.7 0-.79.06-1.62 1-.85.98-1.32 1.25-1.32.75 0-.32-.23-.32-.5 0-.5.61-1.36.1-1.43-.85-.04-.61-.07-.65-.54-.61-.41.03-.53-.05-.7-.45-.11-.27-.34-.62-.52-.77-.18-.16-.32-.5-.32-.76 0-.53-.51-1.14-.96-1.14-.16 0-.54-.15-.84-.33-.85-.52-2.41-.47-3.09.11-.52.44-.54.44-2.4.33-1.58-.09-1.92-.07-2.14.15-.42.41-1.09.51-1.32.2-.27-.37-.96-.35-1.31.04-.36.4-2.02.73-2.93.59-.95-.15-1.75.55-1.6 1.38.06.3.02.58-.07.64-.55.34-.15.62.74.51 1.26-.16 3.26.05 3.26.34 0 .33-.7.45-1.9.32-.69-.07-1.1-.05-1.17.06-.06.1-.54.18-1.07.18s-1.04.08-1.14.18c-.13.13-.62.15-1.52.07-1.32-.12-2.13-.44-1.76-.71.57-.4.38-2.28-.21-2.14-.49.12-1-.13-1.14-.57-.15-.48-.37-.41-.7.21-.32.6-.42 2.08-.16 2.42.42.57-.26.75-2.71.74-1.38 0-2.38.05-2.44.15-.06.09-.33.12-.6.06-.35-.08-.59-.03-.82.18-.31.28-.33.27-.58-.33l-.26-.62-1.95.05c-2.28.06-2.33.04-2.47-1.02l-.11-.81-1.61-.12c-1.56-.11-2.74-.5-3.52-1.16-.14-.11-.92-.26-1.74-.32-2.68-.2-2.95-.59-1.9-2.76.87-1.8 1.46-2.21 2.66-1.85.37.11.69.18.71.15.64-1.12.73-1.8.23-1.8-.21 0-.77-.05-1.25-.11-.82-.1-.88-.08-.88.25 0 .49-.24.45-.48-.08-.18-.4-.26-.43-.92-.34-.42.06-.79.03-.89-.08-.19-.19-2.47-.64-3.25-.64-.52 0-.59.25-.17.7.16.18.27.53.25.81-.03.45 0 .48.38.39.24-.06.53-.02.66.09s.4.15.59.09c.39-.12 1.63.39 1.98.81.27.32.11.6-.34.6a.45.45 0 00-.42.29c-.04.16-.29.42-.56.57-.32.18-.5.44-.53.75-.08.68-.81.75-1.38.13-.35-.37-.46-.42-.67-.24-.16.14-.53.18-1.03.12-.64-.07-.89-.02-1.37.31-.79.54-1.46.5-2.17-.11-.32-.27-.74-.49-.93-.49s-.59-.11-.87-.26c-.68-.34-1.37-.17-1.37.33 0 1.21-1.95 1.11-2.39-.12-.08-.21-.29-.29-.78-.29-.37 0-.82-.09-.99-.19-.25-.16-.39-.13-.77.17-.25.2-.64.36-.86.36s-.64.12-.92.27c-.32.17-.73.23-1.07.18-.48-.08-.56-.04-.56.24 0 .18-.08.49-.18.67-.28.52-.05 1.18.35 1.05.2-.06.51.03.81.24.38.27.64.32 1.29.25.86-.1 1.56.2 1.33.58-.25.4-1.82.15-3.25-.53-.29-.14-.42-.14-.47 0-.43 1.27-2.01.13-1.87-1.35.06-.65-.18-1.92-.37-1.92-.08 0-.14 2.91-.14 6.5v6.5h400V20.26c-.01-10.17-.03-10.83-.3-10.83-.16 0-.57-.15-.91-.33-.47-.25-.72-.29-1.04-.17-.23.09-.83.19-1.35.23-.51.04-1.06.18-1.21.32-.16.14-.67.3-1.14.37l-.85.11-.11-.61c-.12-.65-.46-.9-.82-.6-.17.14-.32.11-.62-.12-.74-.58-1.08-.59-1.31-.03-.24.59-.43.64-.55.17-.11-.42-1.7.48-2 1.12-.21.46-.45.49-.45.06 0-.18-.21-.48-.46-.68-.3-.24-.49-.57-.54-.97-.08-.58-.12-.61-1-.8-.5-.11-1.15-.27-1.43-.36-.72-.23-1.07 0-1.07.73s-.44.97-.8.43c-.13-.2-.39-.36-.57-.36-.21 0-.39-.18-.51-.49-.37-.98-2.21-.89-2.02.1l.11.57-.9-.05c-.79-.05-.89-.09-.85-.39.06-.41-3.14-1.14-3.48-.79-.26.26-3.21.08-4.11-.24-1.33-.48-2.07-1.71-1.04-1.71.5 0 .84-.79.6-1.42-.17-.45-3.9-.22-4.19.26-.12.2.87.7 1.22.62.4-.09 1.53.5 1.53.8 0 .18-.19.25-.68.25-.37 0-.84.09-1.04.2-.2.11-.89.22-1.53.24-.64.02-1.38.09-1.63.15-.32.08-.55.04-.76-.15-.32-.29-4.28-.22-4.46.08-.05.08-.61.14-1.25.14-.88 0-1.18.06-1.26.25-.11.28-.58.33-.83.09-.11-.11-.34-.1-.67.03-.74.28-1.02.11-.93-.53.07-.46.13-.51.46-.43.52.13 1.19-.2 1.31-.63.2-.75.12-.92-.5-1.04-.6-.11-.6-.12-.52-.82.14-1.21-1.02-2.06-1.61-1.17m-71.75.4c-.32.2-.08.52.39.52 1.32 0 1.32.91 0 2-1.08.9-1.07 1.05.08 1.19.48.06.96.19 1.06.29.1.1.46.18.81.18.59 0 .85-.07 2.08-.61.61-.26 2.06-.31 2.06-.06 0 .09.16.17.35.17.41 0 .35-.54-.15-1.4-.43-.74-.74-.87-1.54-.66-.92.25-1.29.12-1.57-.54-.33-.78-2.84-1.55-3.57-1.09m-4.54 1.7c-.24.18-.74.38-1.12.43-.38.05-.69.1-.69.11.31 1.13.69 1.85.95 1.8.17-.03.67-.07 1.13-.1.88-.05.9-.08.68-.81-.09-.31-.06-.55.08-.72.55-.66-.31-1.27-1.02-.72m42.61 1.92c.48.52.46.71-.13 1.05-.57.32-.96.02-.96-.73 0-.9.44-1.02 1.1-.31m72.61-.16c-.99.85-.36 1.23 1.46.89 1.35-.25 3.45.3 3.75.99.15.34.25.37.95.29.56-.07.83-.02.98.15.3.36.63.29 1.18-.26.92-.92.58-1.16-2.02-1.47-.6-.07-1.27-.23-1.5-.36-.27-.15-.96-.24-2-.25-.87 0-1.78-.07-2.01-.14-.31-.09-.52-.05-.78.17m-56.6 1.83c-.23.43-.26.44-.37.16-.08-.22-.03-.39.18-.54.42-.31.49-.18.19.38m36.72.15c0 .2-.16.25-.78.21-1.11-.07-1.17-.47-.07-.47.65 0 .85.06.85.26m-73.17.68c0 .25-.1.4-.26.4-.3 0-.49-.4-.35-.75.14-.37.61-.11.61.35m-73.01.11c-.02 1-.22 1.27-.55.77-.28-.43-.23-.94.13-1.18.33-.23.43-.13.42.41m70.83.22c.57.48.66.78.22.71-.16-.02-.48.08-.72.24-.57.38-2.94.47-3.15.12-.25-.4.12-.84.71-.85.78-.02 1.06-.09 1.48-.39.53-.37.87-.33 1.46.16m63.64.1c-.04.11-.15.23-.26.26-.12.04-.16-.04-.1-.2.12-.3.46-.37.36-.07m-19.41.37c.36.11.22.43-.2.43-.34 0-.69-.31-.69-.62 0-.16.08-.17.29-.06.16.09.43.2.59.25m4.45.1c0 .19-.61.32-1 .22-.72-.19-.16-.55.62-.41.21.04.38.12.38.2m-117.5 1.5c0 .19-.11.33-.25.33-.25 0-.34-.35-.14-.56.21-.21.39-.11.39.22m47 .23c0 .13-.12.33-.26.44-.16.14-.22.37-.17.65.15.72-.15 1.01-.6.57-.37-.37-.28-1 .23-1.68.21-.28.79-.27.79.02m28.24.32c.21.59.05.7-.48.36-.46-.3-.56-.66-.22-.8.35-.14.53-.02.7.44m-18.98.12c.06.1.07.29.01.42-.11.28-1.1-.11-1.1-.43 0-.22.95-.21 1.09.01m-240.67.27c-1.75.12-2.4.72-.78.72.44 0 .87.07.96.15.09.08.34.18.56.21.56.08.63.44.11.57-.23.06-.47.24-.52.41-.05.17-.28.43-.52.58-.52.34-.5.4.41 1.15.92.77 1.03.76 1.03-.11 0-1.12.64-1.61 1.45-1.12.16.1.66.27 1.11.38 1.05.26 1.29.61.89 1.31-.5.87.78 2.03 1.39 1.25.44-.56.85-.63 1.66-.26.39.17.88.31 1.09.31s.58.07.81.16c.3.11.59.09 1-.08 1.17-.49 3.12-.22 4.25.58.62.44 1.8.71 1.91.43.17-.44 1.25-.92 1.5-.68.3.3 4.47.61 4.65.35.22-.32.13-.59-.21-.59-.18 0-.33-.07-.33-.16s-.24-.44-.54-.78c-1.53-1.74-.76-3.19 1.27-2.38 2.14.86 1.99.72 1.86 1.65-.11.78-.09.84.3.99.65.24.69.5.18 1.03-.56.59-.39.93.33.66.25-.1.74-.17 1.09-.17.69 0 1.42-.46 1.59-1 .06-.18.25-.37.42-.42.2-.06.36-.32.43-.68.13-.7.46-1.07.97-1.07.39 0 1.1-.62 1.1-.97 0-.11-.14-.2-.31-.2s-.4-.11-.51-.24c-.35-.43-1.57-.78-2.83-.81-1.1-.03-1.26-.08-1.61-.49-.22-.25-.56-.45-.77-.45s-.65-.08-.97-.17c-.46-.14-.77-.11-1.45.11-.71.24-.98.25-1.48.1-.49-.15-.74-.14-1.2.05-.67.28-3.13.33-3.29.07-.07-.11-.49-.14-1.13-.07-.9.09-1.5.19-3.07.51-.28.06-.38.19-.38.56 0 .74-.45.79-.75.08-.21-.5-.31-.58-.63-.5-.25.06-.74-.08-1.38-.4-1.2-.6-4.67-.75-5.19-.24-.15.15-.38.21-.53.15-.15-.06-.72-.17-1.27-.24s-1.19-.17-1.42-.21c-.23-.04-.79-.05-1.25-.02m187.22.43c-.08.55-.64.6-.64.06 0-.32.09-.43.35-.43s.33.09.29.37m110.57-.27c.16.16-.06.57-.29.57s-.45-.41-.29-.57c.05-.05.19-.1.29-.1s.24.04.29.1m2.46.05c0 .08-.12.24-.26.36-.29.24-.69-.02-.5-.33.13-.22.76-.24.76-.03m20.24.01c.1.16-.4.51-.73.51-.1 0-.18-.15-.18-.33 0-.35.72-.49.91-.18m-85.58.16c0 .44-.24.68-.68.68-.53 0-.56-.04-.31-.51.17-.32.99-.46.99-.17m-53.21.46c.08.24-.71.79-.94.64-.3-.18.17-.95.55-.89.18.03.36.14.4.25m45.72.19c.52.42.29.69-.58.69-2.1 0-2.47-.64-.51-.89.27-.03.55-.07.61-.09.06-.01.28.11.48.28m-223.04.4c.11.57-.71.74-1.57.32-.98-.48-.8-.72.49-.66.82.04 1.04.11 1.08.34m5.04-.12c.12.14.17.3.12.35-.15.15-.81-.27-.7-.44.14-.23.34-.19.58.1m155.7.8c-.03.16.07.45.21.66.33.47.33 1.52 0 1.79-.4.33-1.16-2.13-.83-2.68.17-.28.67-.1.61.23m182.22.45c-.1.16-.53.06-.87-.21-.39-.3-.03-.45.47-.2.27.14.45.32.4.41m-130.39.34l.39.34-.5-.05c-.32-.03-.52-.15-.55-.34-.07-.39.17-.37.66.05m-190.18.34c.18.1.32.27.32.4 0 .36-.63.43-1.03.11-.61-.49-.04-.9.71-.51m8.29.45c.04.28-.03.37-.28.37-.4 0-.59-.25-.45-.6.14-.37.67-.2.74.23m-25.6.12c.04.23 0 .54-.12.69-.28.38-.92.15-.92-.33 0-.78.9-1.09 1.04-.36m78.56 1.06c.01.29-.03.57-.1.61-.18.11-.55-.86-.42-1.08.21-.33.49-.07.52.47m71.74-.14c-.31.19-.41.1-.27-.27.09-.22.15-.24.31-.08.16.16.15.23-.04.35m-99.34.91s-.04.19-.1.33c-.14.37-.4.33-.4-.07 0-.18.11-.33.25-.33s.25.03.25.07m-1.33 1.75c0 .15-.39.35-.68.35-.08 0-.15-.11-.15-.25 0-.16.16-.25.42-.25.23 0 .42.07.42.15m44.92.66c-.14.55-.18.58-.49.46-.31-.12-.35-.88-.05-.99.42-.15.65.08.54.52m28.75.11c0 .13-.07.24-.15.24-.18 0-.36-.43-.23-.56.15-.15.38.05.38.32m40.97.13c.03.15-.07.33-.21.38-.36.14-.48 0-.34-.43.13-.4.47-.37.55.05m-10.83 1.48c-.06.46-.45.55-.89.22-.28-.22-.3-.27-.08-.42.48-.32 1.03-.21.97.2m-187.34.58c.27.59.26.8-.06 1.13-.54.54-.99-.45-.56-1.25.23-.43.37-.4.62.13m5.4-.08c.02.11.05.4.07.62.02.23.09.58.16.79.17.55-.33.49-1.03-.12-.31-.27-.66-.5-.76-.5s.02-.23.29-.5c.48-.51 1.23-.68 1.28-.29m79.31.3c0 .18-.07.32-.17.32s-.17-.19-.17-.43.07-.38.17-.32c.09.06.17.25.17.43m-89.86.03c.07.34-.41.58-.67.32-.25-.25-.02-.74.32-.67.16.03.31.19.35.35m156.87.15c-.42.34-.77.39-.93.14-.12-.19.92-.68 1.15-.54.09.05-.02.23-.22.4m-65.1-.14c.19.14.24.26.13.33-.23.14-1.04-.16-1.04-.39 0-.24.55-.21.91.05M92.85 23c0 .42-.23.56-.42.24-.14-.23.03-.66.25-.66.09 0 .17.19.17.42m86.47-.03c.04.19-.03.25-.21.18-.31-.12-.36-.62-.05-.52.11.04.23.19.26.35m-151.51.76c-.08.41-.57.61-.86.37-.24-.2-.23-.27.1-.72.38-.52.89-.29.77.35m29.6.65c-.21.33-.59.38-.68.1-.03-.1.06-.31.22-.47.37-.37.74-.07.46.37m1.44-.05c0 .14-.11.25-.25.25s-.25-.11-.25-.25.11-.25.25-.25.25.11.25.25m-55.49.6c.09.15 1.33.22 2.49.15.23-.01.63.03.9.1.44.11.47.09.39-.24-.05-.2-.03-.32.06-.26.08.05.15.19.15.32s.21.38.46.56c.65.48.36.92-.64.99-.5.03-.82.16-1 .39-.26.34-.27.33-.83-.26-.57-.61-1.95-.74-2.58-.25-.09.08-.28.07-.42-.02-.13-.09-.42-.16-.63-.16-.47 0-1.11-.57-.95-.84.44-.71 2.24-1.05 2.59-.49m9.75 1.06c.48.48.49.55.14 1.42-.29.72-.4.77-1.21.49-.62-.22-.85-.58-.85-1.35 0-1.03 1.12-1.35 1.92-.55m3.94.62c1.11.24 1.27.38.92.77-.45.5-3.06.38-3.5-.16-.56-.7.77-1.01 2.58-.62m3.8.57c.32.06 1.12.14 1.78.16 2.09.08 3.22.74 1.7 1-.52.09-.75.05-1-.18-.23-.21-.38-.24-.53-.12-.26.21-3.6-.06-3.92-.32-.32-.27-.26-.42.25-.6.46-.16.59-.16 1.71.06m8.33.28c.14-.01.47-.07.73-.14.37-.09.54-.05.7.18.21.28.25.28.83 0 .6-.28 1.4-.17 1.4.21 0 .07.73.1 1.63.07.9-.04 1.89 0 2.21.09.32.08 1.36.1 2.33.04 1.14-.08 1.87-.05 2.08.06.18.1.75.19 1.25.21.5.02 1.22.14 1.58.26 1.19.4.82 1.16-.4.81-.82-.24-4.15-.24-4.99-.01-.56.15-1 .15-1.86 0-1.88-.32-5.94-.11-6.4.32-.49.46-.95.44-1.43-.07-.41-.44-.76-.54-.86-.24-.11.33-1.09.22-1.61-.19-.74-.58-.65-.94.3-1.24.23-.07.51-.23.64-.35.16-.16.43-.19.92-.11.38.06.81.11.95.09m-26.25.12c.06.09.25.17.43.17.38 0 .41.16.11.57-.42.58-1.49.04-1.23-.63.12-.3.54-.37.7-.11m2.67.51c.16.26-.15.52-.49.39-.22-.08-.24-.16-.09-.34.23-.28.43-.29.58-.05m40.85.84c.26.01.06.08-.45.14-1.04.13-1.13.11-.84-.24.15-.18.29-.21.51-.09.17.09.52.17.77.19" fill-rule="evenodd"/></svg>