<svg xmlns="http://www.w3.org/2000/svg" preserveAspectRatio="none" viewBox="0 0 400 35.32"><path d="M0 14.33v14.33l.46.28c.25.15.54.39.65.51.16.19.26.2.58.02.42-.23.77-.29 2.59-.42 1.05-.08 1.26-.04 1.7.28.71.53 1.98.37 2.79-.34 1.19-1.05 2.49.21 1.54 1.5-.44.6-.33.75.39.52 1.02-.32 2.99-.32 3.19 0 .3.47-.12 1.17-.63 1.04-.23-.06-.66-.02-.97.08-.31.1-.93.21-1.38.25-.45.03-1.1.12-1.44.18-.57.11-.62.09-.62-.23 0-.35-.27-.45-1.05-.38-.58.05-1.1-.62-.7-.91.5-.37.05-.58-1.12-.53-.99.04-1.09.1-.77.42.24.24.04 1.7-.24 1.8-.11.04-.52.15-.91.25-.64.17-1.05.54-.82.77.05.05.75.19 1.56.31 1.79.27 1.97.34 2.3.85.32.49.81.51 1.61.08.47-.25.93-.32 2.16-.31.86 0 1.87-.08 2.25-.18.95-.26 1.55-.18 1.9.27.39.49.64.48.83-.04.15-.39.67-.6.67-.27 0 .3 1.24.32 1.58.02.49-.43 1.12-.52 1.65-.24.56.29 1 .31 1.46.06.74-.39 3.14-.38 4 .03.72.34.88.35 1.67.18.48-.1 1.1-.19 1.38-.18.59.01 2.8-.42 3.47-.67 1.11-.42 2.45-.1 2.45.58 0 .14.17.24.42.24.31 0 .42-.09.42-.34 0-.41.93-.86 1.47-.71.2.05.84 0 1.43-.11.93-.18 1.12-.17 1.46.06.21.15.54.27.73.27.43 0 .75.3.75.7 0 .42.61.38.84-.05.14-.26.28-.32.55-.24.6.18 1.83.55 2.24.68.29.09.38.05.38-.19 0-.17.23-.54.51-.83.45-.47.49-.6.4-1.21l-.11-.69-1.55.08c-1.54.08-1.56.08-2.13-.42-.68-.6-.8-.61-1.2-.17-1.06 1.17-2.65-.16-2.16-1.8.33-1.13 1.13-1.55 2.13-1.12.16.07.59.08.96.02.69-.11.8-.06 1.8.94l.47.46 1.2-.25a6.67 6.67 0 002.12-.84c.87-.56.97-.58 1.96-.48.86.09 1.19.04 1.91-.27.85-.36.9-.37 1.84-.1.53.15 1.36.27 1.85.27.83 0 .89.03 1.07.51.23.6.91.59 3.07-.03 1.38-.39 2.01-.4 2.4-.04.26.23.4.25.95.08.97-.29 2.24-.23 3.21.15l.86.34.38-.35c.26-.25.76-.41 1.64-.53l1.27-.18v-.58c0-1.23.99-2.22 1.81-1.8.4.2.53.21.79.03.72-.49 2.4-.28 2.4.31 0 .93 1.47.73 1.97-.26.21-.42.41-.57.78-.61.28-.03.63-.2.8-.38.38-.4.63-.41.73 0 .13.49 3.24.89 4.14.53.2-.08.57-.05.92.08.32.12 1.09.26 1.7.31.62.05 1.34.21 1.62.35.62.32 1.19.33 1.61.01.43-.32 1.08-.32 1.54 0 .3.21.48.23.94.08.42-.14.76-.14 1.33 0 .42.11 1.05.14 1.39.08 2.03-.36 3.01-.21 2.3.33-.18.14-.33.42-.33.62 0 .33-.1.37-.93.42-.81.04-.96.1-1.12.46-.12.26-.38.45-.7.52-1.02.2-.54.65.64.59.78-.04 1.1.01 1.3.21.3.3.67.34.82.1.06-.09.57-.17 1.14-.17s1.29-.07 1.6-.16c.46-.13.67-.1 1.08.15 1.35.81 2.1.41 2.1-1.12 0-.69-.29-.86-1.44-.86-.22 0-.53-.07-.69-.15-.16-.09-.43-.2-.6-.25-.48-.15-.23-.5.48-.68.36-.09.83-.27 1.05-.39.26-.15.66-.19 1.17-.12.43.06 1.06.1 1.41.09.35 0 .8.11.99.25.2.14.54.25.74.25.49 0 1.1.61.97.96-.12.31.17.54.68.54.32 0 .35-.07.27-.65-.13-.97 1.71-1.43 2.68-.67.65.51.59.89-.13.75-.7-.13-1.43.03-1.43.32 0 .13.32.26.77.33.59.09.91.26 1.38.75.73.76 1.97 1.13 1.78.52-.06-.18-.01-.64.1-1.02.19-.63.18-.7-.16-.93-.77-.54-.19-1.66.78-1.51.49.08.68.02 1.04-.33.71-.68 1.58-.65 1.51.05-.04.47 0 .54.39.58.32.04.55.25.83.75.47.85.34 1.01-.85 1.09-1.03.07-1.11.41-.17.73.37.12.75.34.85.48.1.14.29.26.42.26s.48.15.78.33c1.29.79 1.89.17.89-.91-.38-.41-.65-.84-.62-.96.04-.12.19-.59.33-1.05.32-1.01 2.26-2.23 2.26-1.42 0 .27.36.19.59-.12.33-.45 1.29.08 1.74.95.35.69.88.9 1.06.42.16-.43.47-.28 1.28.62.78.87.78.87 1.71.83.81-.03.97.01 1.25.37.47.6 1.34.71 2.18.28.8-.41 1.36-.45 1.36-.1 0 .14-.13.25-.3.25-.35 0-1.04.45-1.04.68 0 .09.7.16 1.58.16 1.57 0 1.58 0 1.58-.41 0-.22-.07-.45-.15-.5-.19-.11.25-1.86.6-2.4.18-.29.3-.34.44-.21.26.26 1.23.23 1.67-.06.83-.54 2.03-.37 2.16.32.14.75-.99 1.31-1.67.83-.27-.19-.44-.21-.69-.08-.18.09-.45.13-.59.07-.3-.11-.92.36-.92.71 0 .39.64.59 1.47.47l.78-.12-.71.69c-.99.97-.94 1.13.39 1.14 1.29.01 1.43.12 1.48 1.12.07 1.75 1.58 2.01 1.61.28.02-1.19.35-2.08.78-2.14.29-.04.37-.16.37-.59 0-.9.5-1.27 1.71-1.27 1.26 0 1.75-.23 1.07-.48-.61-.23-.34-1.01.36-1.01.11 0 .34-.32.51-.71.35-.83.86-1.12 1.93-1.12.77 0 .89.1 1.17.92.17.49 1.23.7 1.38.27.22-.64.51-.76.69-.29.11.3.12.55.03.67-.09.1-.18.41-.21.67-.04.39-.18.52-.64.68-.5.17-.62.32-.89 1.1-.17.5-.37.98-.46 1.06s-.16.36-.16.6c0 .53.54.76.91.39.3-.3.6-.3 1.02 0 .28.2.42.2.83.02.27-.12.62-.26.79-.32.28-.09.94-1.29.95-1.72 0-.11-.17-.22-.37-.25-.74-.1-.43-.55.38-.55.9 0 .93-.04 1.08-1.38l.12-1.05.98-.66c1.39-.94 1.82-1 2.4-.3.7.84 1.03.9 1.59.31.58-.62.98-.63 1.66-.04l.52.46h3.37c1.85 0 3.68.07 4.05.15.57.12.81.07 1.54-.29 1.03-.52 1.68-.55 2.2-.1.42.36.76.43.92.17.13-.21.7-.22.82-.02.18.29-.52.96-.76.73-.33-.33-.43-.25-.55.39-.13.68.14 1.15.56.98.15-.06 1.23-.09 2.42-.08 1.54.01 2.47-.06 3.26-.26 1.5-.39 2.44-.12 2.9.81.17.34.4.62.52.62.54 0 .84.65.63 1.41-.15.55-.15.87 0 1.28.24.72.25.72.55.48.34-.28.76-.1.76.34 0 .27.09.34.38.3.34-.05.39-.19.54-1.42.13-1.04.26-1.46.55-1.77.21-.22.46-.67.54-.99.24-.87 1.17-.93 1.3-.08.02.11.07.56.13.99.11.87.66 1.55 1.12 1.38.34-.13.35-.3.03-.57-.34-.28-.31-.89.07-1.35.43-.53.88-.14 1.28 1.11.36 1.14.28 1.31-.84 1.84-1.02.48-1.13.75-.5 1.17.55.36 2.3-.71 2.35-1.44.02-.23.05-1.03.08-1.78l.05-1.37.49-.05c.57-.06.8-.47.27-.47-.65 0-1.38-.49-1.27-.85.05-.18.15-.47.2-.65.13-.43-.17-.43-.72 0-.56.44-.71.42-.71-.08 0-.23-.16-.56-.35-.74-.52-.49-.3-.85.52-.85.66 0 1.18-.47.7-.63-.11-.04-.2-.22-.2-.4 0-.57.9-.35.97.23.05.45.08.46 1.11.46.6 0 1.08.08 1.12.18.04.12.2.12.53 0 .82-.31 2.68-.23 3.01.14.56.62-1.34 1.56-3.18 1.56-1.13 0-1.69.25-1.21.55.09.06.16.25.16.42 0 .41.19.41.87-.01 1.09-.66 1.96-.34 1.96.73 0 .42.59 1 .85.84.07-.05.12-.38.1-.74-.04-.96.2-1.11.96-.59.77.52 1.62.56 2.08.1.78-.78 1.97-1.23 2.69-1.02.68.2 2.16-.1 2.4-.5.31-.5 1.57 0 1.57.62 0 .26.23.69.59 1.09.32.36.68.84.78 1.06.43.94 2.55-.46 2.55-1.69 0-.84.6-1.11 1.5-.68l.59.28.32-.74c.37-.86.51-.9 2.17-.7 1.76.21 2.27.2 2.76-.06.31-.17.51-.18.71-.05.4.25.35.63-.09.69-.43.06-.5.33-.13.47.16.06.23.28.21.62-.04.46.02.53.42.58.4.05.46 0 .46-.38 0-.66.58-1.15 1.24-1.02.46.09.57.04.76-.32.12-.23.89-1.03 1.69-1.76 1-.92 1.51-1.51 1.6-1.87.15-.6.68-.79 1.03-.36.17.21.18.35.02.7-.25.54-.13.66.4.42.3-.14.42-.14.42 0 0 .12.27.15.83.08 1.31-.17 1.88.55 1.15 1.47-.49.62-.14 1.05.57.72.46-.21.59-.52.29-.71-.41-.25.03-1.08.57-1.08.16 0 .1.64-.07.75-.51.32-.14.59.65.49.53-.07.85-.04.93.08.18.28.39.22.51-.14.09-.28.16-.3.51-.14.62.28.57 1.3-.09 1.99-.58.61-.63 1.01-.17 1.47.18.18.33.41.33.5 0 .28.76.19 1.03-.12.4-.47.88-1.9.88-2.62 0-.54.08-.7.4-.83.37-.16.39-.23.32-1.38-.12-1.97 1.77-3.51 2.29-1.87.08.25.25.33.69.33 1.22 0 1.55.69.97 2.06-.14.33-.19.61-.12.62.07 0 .48 0 .92-.01.96-.03 1.15.63.38 1.3-.53.46-.53.7 0 .7.44 0 .76-.42.76-.98 0-.46.49-1.88.75-2.18.3-.35.47-1.25.44-2.44-.02-1.43 1.12-1.64 1.56-.29.09.28.37.78.62 1.11s.46.68.46.78.23.18.5.18.5.08.5.17-.14.17-.31.17c-1.35 0-2.03 1.26-1.33 2.44.17.29.31.75.31 1.04 0 1 .45.61.53-.45.1-1.42.83-2.25 1.97-2.27.57 0 .61-.81.04-.89-.87-.12.57-2.03 1.53-2.03.23 0 .46-.08.51-.17.24-.39 1.62-.2 1.49.21-.21.67-.53 1.2-.97 1.58-.58.51-.54.71.14.71s.81.16.62.69c-.32.86.17 1.3.95.85.49-.28.51-.28.93.11.32.31.47.35.65.21.23-.19.95.29.95.65 0 .38.53.11 1.03-.52.52-.64.59-.68 1.23-.59.39.05.76.02.86-.09.32-.32.94.27.95.9.02 1.03 2.26.26 2.26-.78 0-.4.08-.59.24-.59.13 0 .39-.19.57-.42s.45-.42.6-.42c.61 0 .7-.8.19-1.75-.31-.58-.44-1.01-.38-1.26.05-.21.02-.52-.07-.7-.22-.42-.06-1.06.31-1.2.94-.36 3.41.45 2.91.95-.11.11-.19.36-.19.57 0 .43.15.48 1.86.64 1.24.12 1.8.48 1.24.81-.17.1-.75.47-1.28.81-.58.37-1.18.62-1.49.62-.76 0-.98.67-.52 1.62.31.64.39.7.82.61.47-.09.58-.03 1.07.62.11.15.48.31.83.36l.62.09v-.72c0-.83.75-1.84 1.23-1.66.39.15.35-.56-.07-1.18-.64-.97-.27-1.47.96-1.3.77.1 2.19-1.11 2.2-1.87 0-1.01 2.61-2.02 2.95-1.14.1.27-1.32 1.73-1.69 1.73-.33 0-.35.91-.03 1.48.19.34.18.51-.08 1.18-.39 1.03-.27 1.57.33 1.42.64-.16.73-.31.55-.98-.21-.76.04-1.36.69-1.63.26-.11.58-.41.71-.67.33-.63 2.07-.74 2.07-.13 0 .54 1.05.91 1.85.65.67-.22 1.16-2.22.67-2.71-.54-.54-.05-1.64.7-1.59.3.02.63-.02.74-.09.11-.07.2-.05.2.05s.18.18.4.18c.66 0 .9.16 1.51 1 .74 1.01.73 1.11-.08 1.44-.68.27-.76.45-.56 1.2.14.53 1.12.47 1.19-.08.07-.52.52-.62.94-.23.42.39.72.42 1.13.1.45-.34 1.79-.14 2.24.34.4.43 1.05.53 1.05.16 0-.65 1.95-.74 2.67-.12.56.48.61 1.75.1 2.26-.58.58-.56.63.38.96.61.22.86.41 1.02.79.23.56.45.63.75.23.24-.33.59-.16.59.28 0 .28.12.32.9.32.5 0 1.02.04 1.15.09.32.12.52-.48.29-.9-.17-.31-.07-.6.61-1.78.1-.18.23-.54.29-.79.13-.64.81-.79 1.33-.3l.39.36.56-.34c.31-.19.77-.34 1.03-.34s.45-.06.41-.12c-.03-.07-.24-.48-.46-.92-.59-1.16-.37-1.33 1.76-1.33 1.76 0 2.38.31 2.14 1.07-.26.81.21 1.19.77.63.36-.36.94-.37 2.7-.06.5.09.68.05.85-.18.36-.5 2.7-.3 3.48.29.72.55.7.55 1.29.13l.47-.33.1.41c.1.39.43.6.43.27 0-.59 2.75.29 3.73 1.2l.51.47 3.16-.1c2.29-.07 3.19-.05 3.28.09.09.14.27.12.68-.07.31-.14.71-.28.9-.31.24-.04.38-.26.51-.77.26-1.09.91-1.34.91-.35 0 .55.36.65.9.24.21-.16.54-.21 1.02-.14.7.1.7.09.82-.51.08-.41.4-.9 1.02-1.54.5-.52.87-1 .82-1.08-.05-.07.03-.36.18-.64.34-.66.83-.65 1.52.02l.54.52 1.35-.2c1.62-.24 1.99-.15 2.12.5.11.56.48.65.64.14.15-.47.51-.3.45.22-.06.51.85.76 1.31.36.15-.13.47-.23.72-.23.32 0 .69-.24 1.27-.81 1.18-1.18 2.37-1.74 3.06-1.45 2.45 1.04 4.28 1.12 4.28.2 0-.97 2.68-1.39 4.36-.68.53.22 1.15.4 1.37.4s.45.12.51.27c.09.24.32.26 1.83.16l1.73-.11.33.45c.32.44.34.45.76.17.24-.15.51-.28.62-.28s.3-.12.44-.26c.31-.31.86-.22 2.22.35.75.31 1.12.37 1.93.29.74-.07 1.14-.02 1.52.18.65.34 1.11.2.95-.29-.61-1.87.11-2.57 1.64-1.6.99.62 1.11.62 1.11 0s.45-.86.77-.41c.26.35.04.92-.36.92-.32 0-.3.16.06.63.26.34.35.36.79.2.37-.14.75-.14 1.49 0 2.38.45 2.74.63 2.99 1.46.24.8 1.04.13.83-.71-.18-.7.77-.99 2.41-.74 1.97.3 2.99 1.04 2.79 2.03-.09.44-.07.46.58.46.57 0 .66-.05.58-.3-.18-.56.28-.95.75-.65 1.26.82 3.76-.09 3.4-1.22-.26-.81.64-1.23 1.18-.55l.36.45.71-.28c.64-.26.76-.26 1.22-.03.65.32.58.34.96-.29.48-.78.42-1.08-.25-1.36-.7-.29-.71-.4-.09-.88.59-.46 1.05-.28 1.95.77.73.85.76.85 1.07 0 .64-1.82 2.33-1.62 2.33.28 0 .73.21.73.66 0 .55-.89 1.11-1.27 1.6-1.08l.4.15v-5.1l-.71-.05c-.39-.03-1.25-.04-1.91-.04-.84 0-1.26-.06-1.4-.23-.52-.63-2.32.11-2.32.96 0 .3.12.61.28.73.37.27-.23.63-.91.55l-.45-.05.46-.44c.55-.52.57-.65.12-.65-.26 0-.33-.11-.33-.49 0-.34-.1-.52-.32-.59-1.01-.32-.61-1.08.99-1.9 1.79-.91 3.82-.7 3.82.4 0 .52.07.63.58.84.87.36 1.26.32 1.26-.15 0-.24.15-.47.42-.61l.42-.22V0H0v14.33m379.63-7.14c.71.88.87.97 1.62.97.69 0 .78-.05 1.19-.67.72-1.09 1.56-.78 1.56.58 0 .91-1.92 1.41-2.78.72-.11-.09-.63-.16-1.17-.15-1.87 0-2.22-.02-2.22-.17 0-.08-.11-.15-.25-.15s-.25.07-.25.16c0 .68-1.79.75-2.33.09-.38-.46.89-.91 1.52-.54.69.4.81.36.81-.21 0-.91 1.69-1.39 2.29-.65m8.09 0c1.47.61 1.67 1.19.47 1.36-.33.05-1 .18-1.48.29-1.4.32-1.89-.52-.89-1.52.58-.58.77-.6 1.9-.13m-28.13.81l.53.51 1.4-.27c2.24-.44 3.02-.45 3.34-.04.29.37 1.44.28 3.81-.31 1.94-.49 3.05-.24 2.54.55-.14.22-1.83 1.05-2.14 1.05-.1 0-.38.15-.61.34-.49.39-.82.31-1.21-.28-.31-.48-3.1-.45-5.2.05-.76.18-1.12.2-1.36.07-.65-.35-2.03.03-2.89.78-.36.32-.76.17-.96-.35-.08-.22-.23-.45-.33-.51-.42-.26-.18-.74.46-.91.38-.1.78-.37 1-.67.48-.64.95-.64 1.62 0m-5.31.19c1.21 1.14-.9 2.9-3.24 2.71-1.21-.1-1.38-.08-1.38.16 0 .55-1.25.78-1.42.27-.16-.5-1.04-.47-1.11.04-.09.6-.84.51-1.03-.12-.29-.97-.5-1.27-.8-1.19-.35.09-.75-.3-.48-.47.1-.06.17-.25.17-.42 0-.43 1.47-1.1 1.83-.84.75.54 1.01.58 1.61.26.7-.37 1.11-.21 1.2.48.08.67.55.56 1.63-.39 1.13-.99 2.27-1.17 3.02-.47m19.2-.09c.61.12.69.52.2.97-.46.41-1.01.1-1.01-.58 0-.53.03-.55.81-.39m-30.73 1.65c0 .09-.17.19-.38.22-.26.04-.38-.03-.38-.22s.12-.26.38-.22c.21.03.38.13.38.22m-5.65 1.58c.02.88-.04.96-.46.62-.28-.22-.52-1.18-.35-1.36.42-.42.8-.07.81.73m62.47-.68c.14.23-.08.68-.33.68-.29 0-.46-.29-.35-.59.1-.27.53-.33.68-.09m-74.66.61c0 .22-.14.34-.46.37-.53.06-.64-.35-.17-.62.39-.23.62-.14.62.25m9.09.81c-.3.37-.74.45-1.27.25-.63-.24-.26-.49.74-.49.62 0 .7.03.53.24m-20.5.18c.12.14.26.54.31.88.09.53.17.62.6.67.93.11 1.35 1.1.54 1.26-2.35.48-2.79.28-2.39-1.08.14-.48.26-1.13.26-1.43 0-.6.31-.74.67-.29m6.29.68c.75.48.43 1.4-.49 1.4s-1.3-.25-1.3-.77c0-1.06.72-1.31 1.79-.63m5.31-.02c.21.84-.39 1.24-.82.55-.14-.22-.1-.36.13-.62.41-.45.56-.43.69.07m-19.63.64c.05.25-.03.29-.41.25-.3-.03-.49-.17-.53-.36-.05-.25.03-.29.41-.25.3.03.49.17.53.36m-1.92.13c-.28.28-.42.31-.66.18-.29-.16-.28-.19.11-.34.73-.29.95-.23.55.16m-1.63.02c.24.24-.12.97-.59 1.22-.35.18-.5.38-.5.66 0 .63-.79 1.27-1.5 1.22-.52-.04-.58-.1-.53-.46.03-.23.07-.79.09-1.25.06-1.45.26-1.63 1.69-1.56.67.03 1.27.11 1.34.18m-51.79.44c.03.22-.03.48-.14.58-.26.26-.67-.29-.55-.74s.61-.33.68.16m3.9-.27c.11.29-.04.65-.22.53-.2-.12-.2-.74 0-.74.08 0 .18.09.23.21m43.47.64c-.26.21-.46.28-.56.18-.25-.25.02-.52.51-.52h.45l-.4.34m93.08-.16c.17.27-.38.77-.6.55-.1-.1-.13-.3-.07-.45.12-.32.5-.37.66-.1m-81.96.69c.04.22-.06.29-.42.29-.26 0-.64.12-.85.26-.42.3-.86.21-.86-.17 0-.64 2.02-1 2.14-.39m-66.15.17c.26.69-.23 1.01-1.05.69-.26-.1-.36-.74-.15-.95.28-.28 1.07-.1 1.21.26m46.41-.24c.26.42-1.47 1.27-2.93 1.44-1.46.17-1.81-.99-.42-1.39.67-.19 3.24-.23 3.35-.05m-5.49.86c.12.2-.19.4-.41.26-.19-.12-.06-.42.17-.42.08 0 .19.07.24.15m102.66 1.11c.44.17.33.73-.15.73-.29 0-.42-.09-.42-.31 0-.47.15-.59.57-.43m-167.81.82c.16.63-.03.92-.59.92-.6 0-.65-.27-.16-.9.43-.55.62-.55.75-.02m38.48.74c.12.19-.36.68-.66.68-.39 0-.48-.37-.16-.61.36-.26.68-.29.82-.07m-4.92 1.39v.54l-.24-.42c-.31-.54-.31-.67 0-.67.17 0 .25.17.24.54m-28.99-.12c0 .14-.07.25-.16.25-.21 0-.36-.26-.23-.39.19-.19.38-.11.38.14m97.14.13c.04.23-.06.29-.54.29-.64 0-.77-.21-.3-.49.4-.24.78-.15.84.2m-1.91.58c-.26.41-.64.36-.7-.11-.07-.51.31-.76.64-.43.19.19.2.32.07.53m-25.22-.29c.46.24.4.54-.18.88-.55.33-.83.25-.83-.22 0-.79.35-1.02 1.01-.66m-35.54.71c.24.29-.01.66-.36.52-.28-.11-.37-.42-.17-.63.17-.17.33-.14.52.1m2 .13c-.03.1-.13.18-.22.18s-.18-.08-.22-.18c-.03-.1.07-.18.22-.18s.25.08.22.18m60.5.1c-.08.42-.47.48-.47.07 0-.2.11-.35.26-.35s.24.11.21.28m-68.18.17c.97.08 1.04.11 1.04.49s-.05.4-.57.3c-.44-.08-.68-.02-1.07.26-.83.61-1.77.35-1.64-.46.11-.68.38-.93.86-.78.18.06.8.14 1.38.19m4.04-.04c0 .14-.15.25-.33.25-.37 0-.45-.26-.12-.39.36-.15.46-.12.46.14m-15.73.66c-.11.44-.6.6-.6.19 0-.27.5-.82.62-.69.04.05.04.27-.02.51m-23.13.63c-.04.27-.18.39-.51.43-.51.06-.59-.15-.2-.54.39-.39.77-.33.71.11m-6.17.46c.56 0 1.06.07 1.12.16.18.29-.71.72-1.2.59-.25-.07-.78-.14-1.18-.16-.89-.05-1.17-.39-.67-.81.32-.27.39-.27.64-.04.19.17.62.25 1.3.25m3.59-.32c1.23.34-.05.98-1.42.7-.82-.16-.87-.41-.13-.66.74-.25.78-.25 1.55-.04m-11.01.68c.28.15.29.2.07.53-.38.57-3.12.59-3.12.01 0-.84 1.87-1.17 3.04-.54m-21.6 1.07c.06.14.02.34-.07.43-.22.22-.87-.11-.87-.45s.81-.32.94.02m-173.94.32c0 .32.16.5.71.77.39.2.77.46.84.59.07.13.24.23.37.23.34 0 1.08.36 1.08.53 0 .2-3.88.18-4.41-.02-.59-.22-.54-.41.28-.97.39-.27.68-.59.65-.72-.03-.13-.1-.37-.14-.53-.06-.21.01-.29.27-.29s.35.1.35.41m171.5-.18c0 .55-2.18.78-2.51.26-.12-.2-.21-.2-.45-.03-.72.51-1.35.36-.89-.2.3-.36 3.84-.38 3.84-.03m-161.22.38c.53.17.99.44 1.14.67.31.47.66.48 1.67.05.63-.27.98-.31 1.82-.23.7.07 1.08.05 1.16-.08.29-.46 2.1-.03 2.1.5s-.61.99-1.3.99c-.34 0-.96.01-1.37.03-.41.01-.99-.08-1.28-.21-.48-.21-.57-.2-.89.09-.48.43-2.97.5-4.36.12-.52-.14-1.11-.22-1.29-.17-.77.2-.95-.64-.27-1.3.83-.81 1.47-.91 2.88-.47m34.64-.02c.33.21.59.24 1.41.11l1.01-.15.33.76c.5 1.12.41 1.26-.77 1.32-.55.03-1.19-.02-1.41-.1-.24-.09-.61-.08-.94.02-.98.3-1.39-.59-.8-1.73.29-.55.57-.61 1.16-.23m121.98.32c-.05.12-.19.19-.32.14-.25-.09-.31-.42-.13-.61.17-.17.55.22.45.47m-142.95.69c.18.73.05.8-1.53.74-1.38-.05-2.41-.33-2.41-.66 0-.5.98-.7 1.33-.28.32.39.61.3 1.09-.33l.44-.58.49.36c.27.2.53.53.58.74m3.27-.75c.04.11.44.32.89.46.65.2.84.35.88.65.03.22 0 .36-.08.32-.08-.04-.73-.02-1.46.05-1.29.13-2.44-.09-2.42-.46.03-.73 1.99-1.64 2.2-1.02m24.98.06c.31.19.17 1.56-.2 1.92-.39.39-1.24.34-1.94-.11-.2-.13-.6-.24-.88-.24-.5 0-.71-.36-.34-.59.09-.06.28-.37.42-.7l.25-.6 1.26.11c.69.06 1.33.15 1.42.2m7.09 0c.18.48.68.61 1.15.31.52-.34.84-.11 1 .72.15.76-.45 1.13-1.66 1.01-.98-.1-1.21-.02-1.3.45-.07.39-.48.56-.48.2 0-.14-.15-.36-.33-.47-.35-.22-.4-.57-.22-1.46.16-.78 1.6-1.37 1.83-.75m-25.11.19c2.05.11 2.35.38 1.03.95-1.83.8-3.56.65-3.67-.31-.07-.58.38-.99.89-.82.18.06.97.15 1.75.18m5.17.1c.28.14.42.35.42.62 0 .76-2.11.32-2.22-.47-.06-.44 1.05-.54 1.8-.16m138.02.46c-.14.35-.17.37-.27.11-.16-.39.04-.9.26-.68.11.11.11.31.01.57M2.35 25.8c-.15.49-.72 1.29-.91 1.29-.37 0-.36-.86.02-1.26.5-.54 1.06-.56.9-.03m138.99-.08c.06.16.14.38.19.48.09.18-.72.56-1.2.56-.34 0-.27-.44.15-.89.45-.49.72-.54.85-.15m-13.32.36c.58.64.1 1.18-.84.94-.47-.12-.52-.52-.13-.96.35-.39.6-.39.96.02m59.4.1c.28.61.24.74-.2.74-.28 0-.42-.11-.47-.38-.16-.83.34-1.1.67-.36m-56.71 0c.42.32-.1.82-.67.65-.58-.18-.71-.4-.35-.66.41-.3.62-.3 1.02.01m20.24.07c0 .4-.3.61-.54.37-.13-.13-.12-.25.04-.44.29-.35.51-.32.51.07m80.9-.17c.13.21-.35.57-.57.43-.13-.08-.13-.18.01-.35.22-.27.43-.3.56-.09M5.28 26.3c0 .72-1.12 1.19-1.74.74-.25-.18-.27-.28-.11-.58.22-.42 1.85-.55 1.85-.15m56.39.15c.12.45 0 .64-.38.64-.47 0-.77-.44-.51-.75.3-.37.78-.31.89.11m1.89.21c-.12.32-.61.35-.61.04 0-.12.09-.31.2-.42.25-.25.55.01.41.37m69.63-.42c.22.35-.47.88-.82.63-.28-.2-.29-.28-.11-.51.24-.29.77-.36.92-.12m-35.23.72c.11.69-.06.96-.63.96-.3 0-.38-.09-.38-.41 0-1.26.82-1.71 1.01-.56m41.35-.45c0 .09-.08.19-.18.22-.1.03-.18-.07-.18-.22s.08-.25.18-.22c.1.03.18.13.18.22m43.64.58c0 .35-.4.44-.81.18-.32-.2-.08-.52.41-.52.3 0 .41.09.41.33m-166.5.56s-.11.16-.25.27c-.2.17-.25.16-.25-.06 0-.15.11-.27.25-.27s.25.03.25.06m14.33.69c.13.16.17.46.09.86-.12.64-.06.66.75.33.18-.07.31.05.45.41l.19.51.64-.32c1.07-.54 4.05-.37 4.05.22 0 .89-2.47 1.56-4.03 1.09-.56-.17-.71-.16-.95.06-.57.51-1.22.5-2.25-.06-1.08-.59-1.7-.57-2.27.05-.39.41-.87.24-.96-.35-.03-.19-.2-.4-.38-.45-.49-.16-.4-.69.14-.82.25-.06.66-.3.9-.53.31-.29.72-.45 1.38-.55.52-.07 1.07-.25 1.22-.4.34-.34.77-.36 1.04-.03m-6.83.07c1.14.03 1.64 1.08 1.15 2.46-.22.63-1.4 1.26-1.93 1.02-.26-.12-.53-.07-1.04.19-.85.43-1.3.44-1.99.01-.4-.25-.71-.31-1.17-.24-.49.08-.75.01-1.24-.33l-.62-.42-.59.35c-.69.4-.98.27-1.23-.58-.09-.29-.25-.77-.37-1.06-.32-.81-.02-.93 3.52-1.42.35-.05 2.46-.04 5.51.03m113.98 0c.14.09.19.26.12.44-.11.27-.13.27-.44 0-.53-.48-.29-.81.32-.43m-124.58.95c.45.17.29.36-.36.44-.65.08-1.44-.25-1.01-.42.31-.12 1.06-.13 1.37-.01" fill="#fff" fill-rule="evenodd"/></svg>